<?xml version="1.0" encoding="UTF-8"?><svg id="Layer_1" xmlns="http://www.w3.org/2000/svg" xmlns:xlink="http://www.w3.org/1999/xlink" viewBox="0 0 256 256"><defs><style>.cls-1{fill:url(#linear-gradient);}.cls-1,.cls-2,.cls-3,.cls-4,.cls-5,.cls-6{stroke-width:0px;}.cls-2{fill:url(#linear-gradient-2);}.cls-7{fill:none;stroke:#fff;stroke-width:6px;}.cls-3{fill:#310c02;}.cls-4{fill:#8e4a1f;}.cls-5{fill:#fff;}.cls-6{fill:#e7e0d3;}</style><linearGradient id="linear-gradient" x1="128.02" y1="253" x2="128.02" y2="28.1" gradientUnits="userSpaceOnUse"><stop offset="0" stop-color="#daa67b"/><stop offset="1" stop-color="#e6c3a6"/><stop offset="1" stop-color="#fff"/></linearGradient><linearGradient id="linear-gradient-2" x1="87.1" y1="252.8" x2="87.1" y2="3" gradientUnits="userSpaceOnUse"><stop offset="0" stop-color="#daa67b"/><stop offset="1" stop-color="#4d8d2e"/></linearGradient></defs><path class="cls-7" d="M159.28,37.35c3.27.96,6.51,2.08,9.74,3.36,39.34,14.89,68.24,54.4,67.72,96.84.53,42.44-28.37,81.94-67.71,96.84-68.9,27.48-149.56-20.78-149.71-96.83.1-49.79,34.7-87.66,77.92-100.18,19.75-5.55,41.2-5.96,62.05-.02Z"/><path class="cls-7" d="M171.85,36.44C97.86,6.95,11.66,59.01,11.52,140.55c.13,81.54,86.34,133.6,160.33,104.12,42.26-15.99,73.24-58.53,72.67-104.12.58-45.58-30.41-88.12-72.67-104.12ZM158.19,40.84c3.15.93,6.29,2.01,9.4,3.25,37.98,14.38,65.87,52.5,65.36,93.47.51,40.96-27.39,79.09-65.36,93.47-66.5,26.52-144.36-20.06-144.5-93.47.09-48.06,33.5-84.62,75.21-96.69,19.06-5.36,39.77-5.75,59.89-.02Z"/><path class="cls-7" d="M82.33,87.15c-14.8.68-34.74-4.74-46.14,9.57-14.76,18.53-14.33,67.5,2.43,93.79,9.39,14.74,36.17,48.03,93.07,48.03,13.22,0-16.75,9.01-3.67,14.26-64.36,0-116.54-50.26-116.54-112.25,0-54.82,28.54-98.9,66.55-119C110.12,4.58,146.4,2.12,162.72,3.23c-1.93,32.34-28.09,81.5-80.39,83.92Z"/><ellipse class="cls-7" cx="128.51" cy="194.06" rx="7.73" ry="6.55"/><path class="cls-7" d="M55.16,66.22s22.19-36.65,74.35-42.52"/><path class="cls-7" d="M55.16,66.22c15.61-25.32,45-40.75,74.35-42.52-28.83,4.57-56.58,19.01-74.35,42.52h0Z"/><ellipse class="cls-7" cx="86.52" cy="136.54" rx="13.1" ry="15.46"/><ellipse class="cls-7" cx="171.14" cy="136.54" rx="13.1" ry="15.46"/><path class="cls-6" d="M159.28,37.35c3.27.96,6.51,2.08,9.74,3.36,39.34,14.89,68.24,54.4,67.72,96.84.53,42.44-28.37,81.94-67.71,96.84-68.9,27.48-149.56-20.78-149.71-96.83.1-49.79,34.7-87.66,77.92-100.18,19.75-5.55,41.2-5.96,62.05-.02Z"/><path class="cls-1" d="M171.85,36.44C97.86,6.95,11.66,59.01,11.52,140.55c.13,81.54,86.34,133.6,160.33,104.12,42.26-15.99,73.24-58.53,72.67-104.12.58-45.58-30.41-88.12-72.67-104.12ZM158.19,40.84c3.15.93,6.29,2.01,9.4,3.25,37.98,14.38,65.87,52.5,65.36,93.47.51,40.96-27.39,79.09-65.36,93.47-66.5,26.52-144.36-20.06-144.5-93.47.09-48.06,33.5-84.62,75.21-96.69,19.06-5.36,39.77-5.75,59.89-.02Z"/><path class="cls-2" d="M82.33,87.15c-14.8.68-34.74-4.74-46.14,9.57-14.76,18.53-14.33,67.5,2.43,93.79,9.39,14.74,36.17,48.03,93.07,48.03,13.22,0-16.75,9.01-3.67,14.26-64.36,0-116.54-50.26-116.54-112.25,0-54.82,28.54-98.9,66.55-119C110.12,4.58,146.4,2.12,162.72,3.23c-1.93,32.34-28.09,81.5-80.39,83.92Z"/><ellipse class="cls-4" cx="128.51" cy="194.06" rx="7.73" ry="6.55"/><path class="cls-5" d="M55.16,66.22c15.61-25.32,45-40.75,74.35-42.52-28.83,4.57-56.58,19.01-74.35,42.52h0Z"/><ellipse class="cls-3" cx="86.52" cy="136.54" rx="13.1" ry="15.46"/><ellipse class="cls-3" cx="171.14" cy="136.54" rx="13.1" ry="15.46"/></svg>